<?xml version="1.0" encoding="UTF-8" standalone="no"?>
<svg width="16px" height="15px" viewBox="0 0 16 15" version="1.1" xmlns="http://www.w3.org/2000/svg" xmlns:xlink="http://www.w3.org/1999/xlink">
    <!-- Generator: Sketch 3.7.1 (28215) - http://www.bohemiancoding.com/sketch -->
    <title>Shape</title>
    <desc>Created with Sketch.</desc>
    <defs></defs>
    <g id="Page-1" stroke="none" stroke-width="1" fill="none" fill-rule="evenodd">
        <g id="logo" fill="#1ABC9C">
            <g id="bubbles">
                <path d="M15.1111111,13.2323684 C15.1111111,13.8871053 15.4725079,14.4542105 16,14.7318421 L16,14.9613158 C15.8524444,14.9823684 15.7018413,14.9934211 15.5486984,14.9934211 C14.6041905,14.9934211 13.752127,14.5828947 13.1497143,13.9247368 C12.7855238,14.0252632 12.399746,14.0794737 12,14.0794737 C9.79098413,14.0794737 8,12.43 8,10.3952632 C8,8.36052632 9.79098413,6.71105263 12,6.71105263 C14.2090159,6.71105263 16,8.36052632 16,10.3952632 C16,11.1918421 15.7254603,11.9292105 15.2589206,12.5318421 C15.1641905,12.7452632 15.1111111,12.9823684 15.1111111,13.2326316 L15.1111111,13.2323684 L15.1111111,13.2323684 Z M4.57142857,4.73684211 L1.77777778,4.73684211 L1.77777778,6.05263158 L4.57142857,6.05263158 L4.57142857,8.68421053 L5.84126984,8.68421053 L5.84126984,6.05263158 L8.38095238,6.05263158 L8.38095238,4.73684211 L5.84126984,4.73684211 L5.84126984,1.84210526 L4.57142857,1.84210526 L4.57142857,4.73684211 L4.57142857,4.73684211 Z M7.11111111,0.263157895 C10.9785397,0.263157895 14.1249524,2.86236842 14.2199365,6.09921053 C13.5367619,5.78368421 12.7812063,5.61684211 12,5.61684211 C10.6727619,5.61684211 9.4191746,6.09815789 8.47034921,6.97210526 C7.48647619,7.87842105 6.94450794,9.09394737 6.94450794,10.3947368 C6.94450794,11.0376316 7.07707937,11.6594737 7.32977778,12.2336842 C7.25714286,12.2355263 7.18450794,12.2368421 7.11111111,12.2368421 C6.73396825,12.2368421 6.36368254,12.2118421 6.00253968,12.1642105 C4.4751746,13.7468421 2.65193651,14.0307895 0.888888889,14.0723684 L0.888888889,13.685 C1.8407619,13.2018421 2.66666667,12.3215789 2.66666667,11.3155263 C2.66666667,11.1752632 2.65625397,11.0373684 2.63669841,10.9026316 C1.02831746,9.805 0,8.12868421 0,6.24973684 C0,2.94342105 3.18374603,0.262894737 7.11111111,0.262894737 L7.11111111,0.263157895 L7.11111111,0.263157895 Z" id="Shape"></path>
            </g>
        </g>
    </g>
</svg>